<svg width="13" height="14" viewBox="0 0 13 14" fill="none" xmlns="http://www.w3.org/2000/svg">
<path fill-rule="evenodd" clip-rule="evenodd" d="M9.38762 0.538032L9.38831 1.06277C11.3166 1.21389 12.5903 2.52784 12.5924 4.54283L12.6 10.4409C12.6028 12.6378 11.2226 13.9895 9.01026 13.993L3.60632 14C1.40784 14.0028 0.0103716 12.6189 0.00760708 10.4157L4.65482e-06 4.5869C-0.00275986 2.55862 1.22607 1.24818 3.15432 1.07117L3.15363 0.546428C3.15294 0.238582 3.38101 0.00699808 3.68511 0.00699808C3.9892 0.00629843 4.21728 0.237183 4.21797 0.545029L4.21866 1.03478L8.32397 1.02919L8.32328 0.539431C8.32259 0.231586 8.55066 0.000701235 8.85476 1.58584e-06C9.15194 -0.000698064 9.38693 0.230186 9.38762 0.538032ZM1.06514 4.80289L11.5288 4.7889V4.54402C11.4991 3.03978 10.7444 2.25057 9.3898 2.13303L9.39049 2.67176C9.39049 2.97261 9.15619 3.21119 8.85901 3.21119C8.55491 3.21189 8.32615 2.97401 8.32615 2.67316L8.32546 2.10644L4.22015 2.11204L4.22084 2.67806C4.22084 2.97961 3.99346 3.21749 3.68936 3.21749C3.38526 3.21819 3.1565 2.98101 3.1565 2.67946L3.15581 2.14073C1.80811 2.27576 1.06238 3.06776 1.06445 4.5853L1.06514 4.80289ZM8.56787 7.98272V7.99042C8.57478 8.31226 8.83741 8.55644 9.15602 8.54944C9.46703 8.54174 9.71514 8.27518 9.70823 7.95334C9.69372 7.64549 9.44422 7.39432 9.1339 7.39502C8.81598 7.40202 8.56717 7.66089 8.56787 7.98272ZM9.13912 11.1242C8.8212 11.1172 8.56479 10.852 8.5641 10.5302C8.55718 10.2083 8.81221 9.94178 9.13013 9.93408H9.13704C9.46187 9.93408 9.72519 10.1992 9.72519 10.5281C9.72588 10.8569 9.46325 11.1235 9.13912 11.1242ZM5.7207 7.994C5.73452 8.31584 5.99784 8.56701 6.31576 8.55302C6.62677 8.53833 6.87488 8.27246 6.86106 7.95062C6.85346 7.63578 6.59774 7.3909 6.28673 7.3916C5.96881 7.40559 5.72001 7.67216 5.7207 7.994ZM6.3182 11.0926C6.00028 11.1066 5.73765 10.8554 5.72314 10.5336C5.72314 10.2117 5.97125 9.94584 6.28917 9.93115C6.60018 9.93045 6.85659 10.1753 6.8635 10.4895C6.87802 10.812 6.62921 11.0779 6.3182 11.0926ZM2.87302 8.01846C2.88684 8.3403 3.15016 8.59217 3.46808 8.57748C3.77909 8.56349 4.0272 8.29692 4.01269 7.97508C4.00578 7.66024 3.75006 7.41536 3.43836 7.41606C3.12044 7.43006 2.87233 7.69662 2.87302 8.01846ZM3.47098 11.0964C3.15307 11.1111 2.89044 10.8592 2.87592 10.5374C2.87523 10.2156 3.12404 9.949 3.44196 9.93501C3.75297 9.93431 4.00937 10.1792 4.01629 10.494C4.0308 10.8159 3.78268 11.0824 3.47098 11.0964Z" fill="#4285F4"/>
</svg>
