<svg width="8" height="10" viewBox="0 0 8 10" fill="none" xmlns="http://www.w3.org/2000/svg">
<path fill-rule="evenodd" clip-rule="evenodd" d="M7.20297 2.18424C7.36506 2.18424 7.5 2.31883 7.5 2.49007V2.64841C7.5 2.81549 7.36506 2.95424 7.20297 2.95424H0.297439C0.134942 2.95424 0 2.81549 0 2.64841V2.49007C0 2.31883 0.134942 2.18424 0.297439 2.18424H1.51232C1.7591 2.18424 1.97388 2.00883 2.02939 1.76133L2.09301 1.47717C2.19189 1.09009 2.51729 0.833008 2.8897 0.833008H4.6103C4.97866 0.833008 5.3077 1.09009 5.40293 1.45675L5.47101 1.76092C5.52612 2.00883 5.7409 2.18424 5.98809 2.18424H7.20297ZM6.58576 7.97218C6.7126 6.79011 6.93466 3.9818 6.93466 3.95347C6.94277 3.86764 6.91481 3.78639 6.85929 3.72097C6.79972 3.65972 6.72435 3.62347 6.64128 3.62347H0.861885C0.778408 3.62347 0.698982 3.65972 0.643871 3.72097C0.587949 3.78639 0.560394 3.86764 0.564446 3.95347C0.565191 3.95868 0.573159 4.0576 0.58648 4.22298C0.64566 4.95766 0.810488 7.0039 0.916996 7.97218C0.992369 8.6855 1.46041 9.13383 2.13836 9.15008C2.66151 9.16217 3.20047 9.16633 3.75158 9.16633C4.27068 9.16633 4.79789 9.16217 5.33725 9.15008C6.0387 9.138 6.50634 8.69759 6.58576 7.97218Z" fill="#E71D36"/>
</svg>
