<svg width="47" height="61" viewBox="0 0 47 61" fill="none" xmlns="http://www.w3.org/2000/svg">
<path d="M30.6275 0H5.07758C3.99873 0 2.96406 0.428572 2.2012 1.19143C1.43834 1.9543 1.00977 2.98896 1.00977 4.06781V54.9154C1.00977 55.9943 1.43834 57.029 2.2012 57.7918C2.96406 58.5547 3.99873 58.9833 5.07758 58.9833H41.6879C42.7667 58.9833 43.8014 58.5547 44.5642 57.7918C45.3271 57.029 45.7557 55.9943 45.7557 54.9154V15.1282L30.6275 0Z" fill="#EDEDED"/>
<path d="M45.4694 14.83L30.9371 0.29775C30.7949 0.155571 30.6137 0.0587504 30.4165 0.019529C30.2192 -0.0196923 30.0148 0.000446392 29.829 0.0773992C29.6432 0.154352 29.4844 0.284664 29.3726 0.451861C29.2609 0.619058 29.2012 0.815633 29.2012 1.01674V12.4981C29.2012 13.577 29.6297 14.6116 30.3926 15.3745C31.1555 16.1374 32.1901 16.5659 33.269 16.5659H44.7504C44.9515 16.5659 45.1481 16.5062 45.3153 16.3945C45.4825 16.2827 45.6128 16.1239 45.6897 15.9381C45.7667 15.7523 45.7868 15.5479 45.7476 15.3507C45.7084 15.1534 45.6115 14.9722 45.4694 14.83Z" fill="#C6C6C6"/>
<path d="M44.7459 41.5887H21.4435L19.0028 38.7971C18.8119 38.579 18.5766 38.4041 18.3126 38.2843C18.0487 38.1645 17.7621 38.1026 17.4723 38.1025H2.03391C1.49448 38.1025 0.977149 38.3168 0.595717 38.6983C0.214286 39.0797 0 39.597 0 40.1364V54.9179C0.00161478 56.2659 0.537848 57.5583 1.49108 58.5115C2.4443 59.4648 3.7367 60.001 5.08476 60.0026H41.6951C43.0431 60.001 44.3355 59.4648 45.2887 58.5115C46.242 57.5583 46.7782 56.2659 46.7798 54.9179V43.6226C46.7798 43.0831 46.5655 42.5658 46.1841 42.1844C45.8027 41.8029 45.2853 41.5887 44.7459 41.5887Z" fill="#0461A0"/>
<path d="M25.1235 14.8047H7.11328V16.8386H25.1235V14.8047Z" fill="#C6C6C6"/>
<path d="M39.6548 28.2109H21.6445V30.2448H39.6548V28.2109Z" fill="#C6C6C6"/>
<path d="M39.6558 19.2764H7.11328V21.3103H39.6558V19.2764Z" fill="#C6C6C6"/>
<path d="M39.6558 23.749H7.11328V25.7829H39.6558V23.749Z" fill="#C6C6C6"/>
<path d="M15.3366 54.9253H12.3457V45.8459H15.3132C15.9504 45.8308 16.5843 45.9407 17.1793 46.1693C17.6787 46.3682 18.123 46.6842 18.4749 47.0907C18.8256 47.5093 19.0826 47.9982 19.2284 48.5246C19.3982 49.1343 19.4803 49.765 19.4725 50.3978C19.4827 51.0476 19.3963 51.6954 19.2162 52.3198C19.0624 52.8501 18.7878 53.3374 18.4139 53.7436C18.0177 54.1525 17.5372 54.4701 17.0057 54.6742C16.4742 54.8782 15.9046 54.9639 15.3366 54.9253ZM15.3142 47.5015H14.285V53.2615H15.2898C15.6722 53.2758 16.0524 53.1976 16.3983 53.0337C16.6793 52.8901 16.9164 52.6733 17.0847 52.4063C17.2577 52.123 17.376 51.8098 17.4335 51.4829C17.5016 51.1156 17.5357 50.7428 17.5352 50.3693C17.5421 49.9447 17.4949 49.521 17.3949 49.1083C17.3187 48.787 17.1805 48.4837 16.9881 48.2154C16.7876 47.9701 16.5305 47.7773 16.2389 47.6536C15.9472 47.53 15.6299 47.4792 15.3142 47.5056V47.5015ZM23.7366 55.0473C23.1186 55.0662 22.505 54.9387 21.9457 54.6751C21.4726 54.4384 21.0647 54.0892 20.7579 53.6581C20.444 53.2105 20.2205 52.7057 20.1 52.1724C19.8329 50.9955 19.8329 49.7737 20.1 48.5968C20.2201 48.0623 20.4436 47.5566 20.7579 47.108C21.0647 46.6769 21.4726 46.3277 21.9457 46.091C22.51 45.8455 23.1187 45.7188 23.734 45.7188C24.3494 45.7188 24.9581 45.8455 25.5224 46.091C25.9926 46.3295 26.3981 46.6785 26.7041 47.108C27.0181 47.5566 27.2412 48.0624 27.361 48.5968C27.4983 49.1827 27.5665 49.7827 27.5644 50.3846C27.6406 51.6017 27.2963 52.808 26.5891 53.8015C26.2459 54.2198 25.8084 54.5508 25.3126 54.7673C24.8168 54.9838 24.2767 55.0798 23.7366 55.0473ZM23.7366 47.3835C23.453 47.3623 23.1691 47.42 22.9163 47.5503C22.6635 47.6807 22.4518 47.8785 22.3047 48.1219C21.9516 48.8218 21.7912 49.6031 21.84 50.3856C21.7912 51.168 21.9516 51.9494 22.3047 52.6493C22.4661 52.8766 22.6796 53.062 22.9273 53.1899C23.175 53.3178 23.4497 53.3846 23.7285 53.3846C24.0072 53.3846 24.2819 53.3178 24.5296 53.1899C24.7773 53.062 24.9908 52.8766 25.1522 52.6493C25.5062 51.9497 25.667 51.1682 25.618 50.3856C25.667 49.603 25.5062 48.8215 25.1522 48.1219C25.0075 47.88 24.7986 47.683 24.5487 47.5527C24.2988 47.4224 24.0177 47.3638 23.7366 47.3835ZM31.6993 55.0473C31.0992 55.0665 30.5041 54.932 29.9705 54.6568C29.5129 54.4085 29.1245 54.0499 28.8407 53.6134C28.5496 53.1577 28.3429 52.6534 28.2305 52.1246C27.9797 50.9809 27.9797 49.7964 28.2305 48.6527C28.3435 48.1208 28.5531 47.6141 28.8488 47.1578C29.1367 46.7222 29.5271 46.3639 29.9858 46.1144C30.5193 45.839 31.1144 45.7046 31.7146 45.7239C32.3998 45.7104 33.0755 45.8864 33.6671 46.2324C33.9684 46.4172 34.2214 46.6709 34.4054 46.9727C34.6452 47.3721 34.828 47.803 34.9485 48.253L33.1668 48.6802C33.0551 48.3367 32.8721 48.0206 32.6298 47.7527C32.5023 47.6261 32.3493 47.528 32.181 47.4649C32.0127 47.4017 31.8329 47.3751 31.6536 47.3866C31.4304 47.3819 31.2097 47.4347 31.0129 47.5402C30.8325 47.6408 30.6763 47.7796 30.5553 47.9469C30.4293 48.1225 30.3287 48.3149 30.2563 48.5185C30.1787 48.7327 30.1195 48.9532 30.0793 49.1774C30.039 49.399 30.0126 49.6228 30 49.8476C29.9878 50.0693 29.9827 50.2697 29.9827 50.4507C29.9375 51.2128 30.0843 51.974 30.4098 52.6646C30.5306 52.8983 30.7169 53.0916 30.946 53.221C31.175 53.3503 31.4368 53.41 31.6993 53.3927C31.9052 53.3965 32.1101 53.362 32.3034 53.291C32.4649 53.2292 32.6125 53.1358 32.7376 53.0164C32.8648 52.8908 32.9752 52.7493 33.0661 52.5954C33.1695 52.4217 33.2632 52.2425 33.3468 52.0585L35.1773 52.5344C35.0261 52.9415 34.826 53.3288 34.5814 53.6876C34.3768 53.9816 34.1233 54.2382 33.8319 54.4463C33.2021 54.8663 32.4558 55.0767 31.6993 55.0473Z" fill="white"/>
</svg>
