<svg width="5" height="19" viewBox="0 0 5 19" fill="none" xmlns="http://www.w3.org/2000/svg">
<path d="M2.11111 4.22222C2.52865 4.22222 2.93681 4.09841 3.28398 3.86644C3.63115 3.63446 3.90174 3.30475 4.06152 2.919C4.22131 2.53324 4.26312 2.10877 4.18166 1.69925C4.1002 1.28974 3.89914 0.913575 3.60389 0.618331C3.30865 0.323087 2.93248 0.122023 2.52297 0.0405654C2.11345 -0.0408923 1.68898 0.000914704 1.30323 0.1607C0.91747 0.320485 0.587759 0.591071 0.355788 0.938241C0.123816 1.28541 1.13767e-06 1.69357 1.13767e-06 2.11111C1.13767e-06 2.67101 0.222422 3.20798 0.618332 3.60389C1.01424 3.9998 1.55121 4.22222 2.11111 4.22222ZM2.11111 14.7778C1.69357 14.7778 1.28541 14.9016 0.938242 15.1336C0.591071 15.3655 0.320485 15.6952 0.1607 16.081C0.000914704 16.4668 -0.0408923 16.8912 0.0405654 17.3007C0.122023 17.7103 0.323087 18.0864 0.618332 18.3817C0.913576 18.6769 1.28974 18.878 1.69925 18.9594C2.10877 19.0409 2.53324 18.9991 2.919 18.8393C3.30475 18.6795 3.63446 18.4089 3.86644 18.0618C4.09841 17.7146 4.22222 17.3064 4.22222 16.8889C4.22222 16.329 3.9998 15.792 3.60389 15.3961C3.20798 15.0002 2.67101 14.7778 2.11111 14.7778ZM2.11111 7.38889C1.69357 7.38889 1.28541 7.5127 0.938242 7.74468C0.591071 7.97665 0.320485 8.30636 0.1607 8.69211C0.000914704 9.07787 -0.0408923 9.50234 0.0405654 9.91186C0.122023 10.3214 0.323087 10.6975 0.618332 10.9928C0.913576 11.288 1.28974 11.4891 1.69925 11.5705C2.10877 11.652 2.53324 11.6102 2.919 11.4504C3.30475 11.2906 3.63446 11.02 3.86644 10.6729C4.09841 10.3257 4.22222 9.91754 4.22222 9.5C4.22222 8.9401 3.9998 8.40313 3.60389 8.00722C3.20798 7.61131 2.67101 7.38889 2.11111 7.38889Z" fill="#FA5440"/>
</svg>
