<svg width="12" height="15" viewBox="0 0 12 15" fill="none" xmlns="http://www.w3.org/2000/svg">
<path d="M10.6387 12.7219H0.712028C0.523977 12.7219 0.343628 12.7966 0.210656 12.9296C0.0776833 13.0626 0.00298009 13.2429 0.00298009 13.431C0.00298009 13.619 0.0776833 13.7994 0.210656 13.9323C0.343628 14.0653 0.523977 14.14 0.712028 14.14H10.6387C10.8267 14.14 11.0071 14.0653 11.1401 13.9323C11.273 13.7994 11.3477 13.619 11.3477 13.431C11.3477 13.2429 11.273 13.0626 11.1401 12.9296C11.0071 12.7966 10.8267 12.7219 10.6387 12.7219ZM0.712028 11.3038H0.775842L3.73257 11.0344C4.05646 11.0021 4.35939 10.8594 4.59052 10.6302L10.9719 4.24878C11.2196 3.98712 11.3535 3.63795 11.3442 3.27777C11.3349 2.91759 11.1832 2.57579 10.9223 2.32727L8.97952 0.384475C8.72596 0.146303 8.3937 0.00964272 8.04594 0.000491198C7.69818 -0.00866033 7.35919 0.110335 7.09346 0.334841L0.712028 6.71627C0.482839 6.94739 0.340135 7.25033 0.307871 7.57422L0.00298009 10.5309C-0.00657152 10.6348 0.0069042 10.7395 0.0424465 10.8375C0.0779889 10.9356 0.134723 11.0246 0.208604 11.0982C0.274857 11.1639 0.353431 11.2159 0.43982 11.2512C0.526208 11.2865 0.618712 11.3043 0.712028 11.3038ZM7.99395 1.37714L9.92965 3.31284L8.51155 4.69548L6.6113 2.79524L7.99395 1.37714Z" fill="#FA5440"/>
</svg>
