<svg width="25" height="24" viewBox="0 0 25 24" fill="none" xmlns="http://www.w3.org/2000/svg">
<path d="M12.8495 0H14.5073V2.23416C17.3 2.23416 20.0927 2.23975 22.8885 2.22553C23.3714 2.18089 23.8571 2.27384 24.2894 2.49363C24.5136 2.92854 24.6086 3.41855 24.5631 3.90573C24.5492 8.74912 24.5475 13.5912 24.558 18.4319C24.6047 19.2471 24.5729 20.065 24.4631 20.8742C24.3514 21.4546 23.6537 21.4688 23.1876 21.4881C20.2964 21.4962 17.4021 21.4825 14.5078 21.4881V24H12.7743C8.5208 23.2292 4.25862 22.5148 0 21.7694V2.23416C4.28401 1.49029 8.56802 0.756569 12.8495 0Z" fill="#207245"/>
<path d="M14.5088 3.06984H23.7191V21.2528H14.5088V19.52H16.7429V17.501H14.5088V16.3458H16.7429V14.3263H14.5088V13.1711H16.7429V11.151H14.5088V9.99582H16.7429V7.97631H14.5088V6.82425H16.7429V4.8016H14.5088V3.06984Z" fill="white"/>
<path d="M17.8556 4.74469H21.7654V6.69958H17.8556V4.74469Z" fill="#207245"/>
<path d="M8.26491 7.36465C8.89555 7.31804 9.52823 7.27831 10.1629 7.24547C9.41821 8.83957 8.66756 10.4303 7.91099 12.0177C8.67873 13.6482 9.46272 15.267 10.233 16.8975C9.56106 16.8572 8.88946 16.8125 8.21819 16.7635C7.68744 15.5738 7.22241 14.3535 6.8254 13.1084C6.4461 14.2907 5.90431 15.4058 5.46916 16.5648C4.85984 16.5558 4.24646 16.5299 3.63562 16.5034C4.35258 15.0387 5.04517 13.5624 5.78448 12.1067C5.15637 10.6071 4.46734 9.13657 3.81943 7.64594C4.43349 7.6078 5.04754 7.57089 5.6616 7.53522C6.07746 8.67359 6.53191 9.79765 6.87566 10.9652C7.24379 9.72773 7.7937 8.56341 8.26542 7.36624L8.26491 7.36465Z" fill="white"/>
<path d="M17.8556 7.81406H21.7654V9.76793H17.8556V7.81406ZM17.8556 10.884H21.7654V12.8379H17.8556V10.884ZM17.8556 13.9539H21.7654V15.9078H17.8556V13.9539ZM17.8556 17.0239H21.7654V18.9778H17.8556V17.0239Z" fill="#207245"/>
</svg>
