<svg width="17" height="16" viewBox="0 0 17 16" fill="none" xmlns="http://www.w3.org/2000/svg">
<g clip-path="url(#clip0_1303_128073)">
<path d="M7.10008 2.82675C7.55897 2.71933 8.02879 2.66564 8.50008 2.66675C13.1667 2.66675 15.8334 8.00008 15.8334 8.00008C15.4287 8.75715 14.9461 9.4699 14.3934 10.1267M9.91341 9.41341C9.73032 9.60991 9.50951 9.76752 9.26418 9.87683C9.01885 9.98614 8.75402 10.0449 8.48547 10.0497C8.21693 10.0544 7.95019 10.005 7.70115 9.90441C7.45212 9.80382 7.2259 9.6541 7.03598 9.46418C6.84606 9.27427 6.69634 9.04804 6.59575 8.79901C6.49516 8.54997 6.44577 8.28323 6.4505 8.01469C6.45524 7.74615 6.51402 7.48131 6.62333 7.23598C6.73264 6.99065 6.89025 6.76985 7.08675 6.58675M1.16675 0.666748L15.8334 15.3334M12.4601 11.9601C11.3205 12.8287 9.93282 13.31 8.50008 13.3334C3.83341 13.3334 1.16675 8.00008 1.16675 8.00008C1.99601 6.45468 3.14617 5.10449 4.54008 4.04008L12.4601 11.9601Z" stroke="#667085" stroke-width="2" stroke-linecap="round" stroke-linejoin="round"/>
</g>
<defs>
<clipPath id="clip0_1303_128073">
<rect width="16" height="16" fill="white" transform="translate(0.5)"/>
</clipPath>
</defs>
</svg>
