<svg width="12" height="12" viewBox="0 0 12 12" fill="none" xmlns="http://www.w3.org/2000/svg">
<path d="M6.00049 2.25C3.50049 2.25 1.36549 3.805 0.500488 6C1.36549 8.195 3.50049 9.75 6.00049 9.75C8.50299 9.75 10.6355 8.195 11.5005 6C10.6355 3.805 8.50299 2.25 6.00049 2.25ZM6.00049 8.5C4.62049 8.5 3.50049 7.38 3.50049 6C3.50049 4.62 4.62049 3.5 6.00049 3.5C7.38049 3.5 8.50049 4.62 8.50049 6C8.50049 7.38 7.38049 8.5 6.00049 8.5ZM6.00049 4.5C5.17299 4.5 4.50049 5.1725 4.50049 6C4.50049 6.8275 5.17299 7.5 6.00049 7.5C6.82799 7.5 7.50049 6.8275 7.50049 6C7.50049 5.1725 6.82799 4.5 6.00049 4.5Z" fill="#5254A6"/>
</svg>
