<svg width="18" height="15" viewBox="0 0 18 15" fill="none" xmlns="http://www.w3.org/2000/svg">
<path d="M4.67945 1.34615C4.67945 0.807692 5.11566 0.384615 5.67085 0.384615H16.6557C17.2108 0.384615 17.6471 0.807692 17.6471 1.34615C17.6471 1.88462 17.2108 2.30769 16.6557 2.30769H5.67085C5.11566 2.30769 4.67945 1.88462 4.67945 1.34615ZM16.6557 6.53846H5.67085C5.11566 6.53846 4.67945 6.96154 4.67945 7.5C4.67945 8.03846 5.11566 8.46154 5.67085 8.46154H16.6557C17.2108 8.46154 17.6471 8.03846 17.6471 7.5C17.6471 6.96154 17.2108 6.53846 16.6557 6.53846ZM16.6557 12.6923H5.67085C5.11566 12.6923 4.67945 13.1154 4.67945 13.6538C4.67945 14.1923 5.11566 14.6154 5.67085 14.6154H16.6557C17.2108 14.6154 17.6471 14.1923 17.6471 13.6538C17.6471 13.1154 17.2108 12.6923 16.6557 12.6923ZM1.38797 6.23077C0.614673 6.23077 0 6.84615 0 7.59615C0 8.34615 0.614673 8.96154 1.38797 8.96154C2.16127 8.96154 2.77594 8.34615 2.77594 7.59615C2.77594 6.84615 2.14144 6.23077 1.38797 6.23077ZM1.38797 0C0.614673 0 0 0.615385 0 1.36538C0 2.11538 0.614673 2.73077 1.38797 2.73077C2.16127 2.73077 2.77594 2.11538 2.77594 1.36538C2.77594 0.615385 2.14144 0 1.38797 0ZM1.38797 12.2692C0.614673 12.2692 0 12.8846 0 13.6346C0 14.3846 0.614673 15 1.38797 15C2.16127 15 2.77594 14.3846 2.77594 13.6346C2.77594 12.8846 2.14144 12.2692 1.38797 12.2692V12.2692Z" fill="white"/>
</svg>
