<svg width="62" height="73" viewBox="0 0 62 73" fill="none" xmlns="http://www.w3.org/2000/svg">
<g clip-path="url(#clip0_376_6586)">
<path opacity="0.15" d="M61.5 67.53C61.5 68.8561 60.9732 70.1279 60.0355 71.0656C59.0979 72.0032 57.8261 72.53 56.5 72.53H16.5C15.1739 72.53 13.9021 72.0032 12.9645 71.0656C12.0268 70.1279 11.5 68.8561 11.5 67.53V16.53C11.5 15.2039 12.0268 13.9322 12.9645 12.9945C13.9021 12.0568 15.1739 11.53 16.5 11.53H33.35C36.5048 11.6847 39.5131 12.9084 41.88 15L58 31.11C60.1191 33.4699 61.3681 36.483 61.54 39.65L61.5 67.53Z" fill="#B76A8A"/>
<path d="M47.5 66H7.5C5.51687 65.9974 3.61527 65.2105 2.21017 63.811C0.80508 62.4115 0.0105609 60.5131 0 58.53L0 7.5C0.00264579 5.51169 0.793672 3.60557 2.19962 2.19962C3.60557 0.793672 5.51169 0.00264579 7.5 0L24.35 0C28.1799 0.162315 31.8287 1.67497 34.65 4.27L50.73 20.35C53.3243 23.1718 54.8368 26.8203 55 30.65V58.53C54.9894 60.5131 54.1949 62.4115 52.7898 63.811C51.3847 65.2105 49.4831 65.9974 47.5 66ZM5 5V61H50V30.65C49.8246 28.1496 48.842 25.7738 47.2 23.88L31.12 7.8C29.2266 6.15736 26.8506 5.17465 24.35 5H5Z" fill="#6A80B9"/>
<path d="M50 27H29V4L50 27Z" stroke="#6A80B9" stroke-width="2" stroke-miterlimit="10"/>
<path d="M44 45.0955V47.1629C44 47.5059 43.9849 47.852 43.9546 48.1951C43.531 52.9155 40.2181 56 35.4377 56H22.3672C19.9468 56 17.9045 55.2225 16.4371 53.8128C15.8623 53.29 15.3782 52.6758 15 51.9717C15.4992 51.371 16.0589 50.7133 16.6035 50.0542C17.5263 48.9606 18.4189 47.8805 18.9786 47.1779C19.8106 46.1592 22.0042 43.4776 25.0449 44.736C25.6651 44.9907 26.2097 45.3502 26.7089 45.6648C27.9343 46.4738 28.4486 46.7135 29.3109 46.2491C30.264 45.7397 30.8842 44.736 31.5347 43.6874C31.8826 43.1316 32.2306 42.5938 32.6088 42.0994C34.2577 39.9722 36.7992 39.4029 38.9171 40.6613C39.976 41.2905 40.8837 42.0844 41.7308 42.8919C41.9124 43.0717 42.0939 43.2379 42.2603 43.4027C42.4872 43.6274 43.2436 44.3765 44 45.0955" fill="#6A80B9"/>
<path d="M28 36C28 38.1825 26.1813 40 23.9992 40C21.8187 40 20 38.1825 20 36C20 33.819 21.8187 32 23.9992 32C26.1813 32 28 33.819 28 36" fill="#6A80B9"/>
</g>
<defs>
<clipPath id="clip0_376_6586">
<rect width="61.5" height="72.53" fill="white"/>
</clipPath>
</defs>
</svg>
