<svg width="19" height="24" viewBox="0 0 19 24" fill="none" xmlns="http://www.w3.org/2000/svg">
<path d="M12.2505 0H2.03095C1.59943 0 1.18558 0.171421 0.880453 0.476553C0.575321 0.781685 0.4039 1.19553 0.4039 1.62705V21.9652C0.4039 22.3967 0.575321 22.8106 0.880453 23.1157C1.18558 23.4209 1.59943 23.5923 2.03095 23.5923H16.6744C17.106 23.5923 17.5198 23.4209 17.8249 23.1157C18.1301 22.8106 18.3015 22.3967 18.3015 21.9652V6.05101L12.2505 0Z" fill="#EDEDED"/>
<path d="M18.187 5.93174L12.3743 0.119095C12.3174 0.0622256 12.245 0.0234991 12.1661 0.00781127C12.0872 -0.0078766 12.0054 0.000178549 11.9311 0.0309583C11.8568 0.0617381 11.7932 0.113861 11.7485 0.180736C11.7038 0.247612 11.68 0.326239 11.68 0.406677V4.99903C11.68 5.43056 11.8514 5.8444 12.1565 6.14954C12.4616 6.45467 12.8755 6.62609 13.307 6.62609H17.8994C17.9798 6.62607 18.0584 6.6022 18.1253 6.55751C18.1922 6.51281 18.2443 6.44929 18.2751 6.37498C18.3059 6.30066 18.3139 6.21889 18.2982 6.13999C18.2826 6.0611 18.2438 5.98863 18.187 5.93174V5.93174Z" fill="#C6C6C6"/>
<path d="M17.8976 16.6347H8.57701L7.60078 15.5182C7.52443 15.4309 7.43031 15.361 7.32473 15.3131C7.21915 15.2652 7.10454 15.2404 6.9886 15.2403H0.813527C0.597766 15.2403 0.390842 15.3261 0.238277 15.4786C0.0857107 15.6312 0 15.8381 0 16.0539V21.9662C0.000645882 22.5054 0.21513 23.0223 0.596404 23.4036C0.977679 23.7849 1.49461 23.9994 2.03382 24H16.6773C17.2165 23.9994 17.7334 23.7849 18.1147 23.4036C18.496 23.0223 18.7105 22.5054 18.7111 21.9662V17.4483C18.7111 17.2325 18.6254 17.0256 18.4728 16.873C18.3203 16.7204 18.1133 16.6347 17.8976 16.6347Z" fill="#0461A0"/>
<path d="M10.049 5.92162H2.84518V6.73514H10.049V5.92162Z" fill="#C6C6C6"/>
<path d="M15.8612 11.2839H8.65744V12.0974H15.8612V11.2839Z" fill="#C6C6C6"/>
<path d="M15.8616 7.71021H2.84518V8.52374H15.8616V7.71021Z" fill="#C6C6C6"/>
<path d="M15.8616 9.49919H2.84518V10.3127H15.8616V9.49919Z" fill="#C6C6C6"/>
<path d="M6.13437 21.9692H4.93808V18.3376H6.12501C6.37988 18.3315 6.63345 18.3755 6.87143 18.4669C7.07119 18.5465 7.24891 18.6729 7.38964 18.8354C7.52994 19.0029 7.63272 19.1985 7.69105 19.409C7.75894 19.6528 7.79181 19.9051 7.78868 20.1582C7.79275 20.4182 7.75821 20.6772 7.68617 20.927C7.62466 21.1391 7.5148 21.334 7.36524 21.4965C7.20679 21.6601 7.01457 21.7871 6.80199 21.8687C6.5894 21.9503 6.36157 21.9846 6.13437 21.9692V21.9692ZM6.12542 18.9998H5.71378V21.3037H6.11566C6.26862 21.3094 6.42071 21.2781 6.55903 21.2126C6.67144 21.1551 6.76629 21.0684 6.8336 20.9616C6.90279 20.8483 6.95011 20.723 6.97312 20.5923C7.00036 20.4454 7.01397 20.2963 7.01379 20.1469C7.01654 19.977 6.99767 19.8075 6.95766 19.6425C6.92719 19.514 6.87192 19.3926 6.79495 19.2853C6.71478 19.1872 6.61192 19.1101 6.49527 19.0606C6.37862 19.0112 6.25169 18.9908 6.12542 19.0014V18.9998ZM9.49424 22.018C9.24706 22.0255 9.00161 21.9745 8.77793 21.8691C8.58866 21.7744 8.42552 21.6347 8.30283 21.4623C8.17724 21.2833 8.08784 21.0814 8.03965 20.868C7.93281 20.3973 7.93281 19.9086 8.03965 19.4379C8.08769 19.2241 8.1771 19.0218 8.30283 18.8424C8.42552 18.6699 8.58866 18.5303 8.77793 18.4356C9.00361 18.3374 9.24709 18.2867 9.49322 18.2867C9.73934 18.2867 9.98283 18.3374 10.2085 18.4356C10.3966 18.531 10.5588 18.6706 10.6812 18.8424C10.8068 19.0218 10.896 19.2241 10.9439 19.4379C10.9988 19.6722 11.0261 19.9122 11.0253 20.153C11.0558 20.6398 10.918 21.1223 10.6352 21.5197C10.4979 21.687 10.3229 21.8194 10.1246 21.906C9.92629 21.9926 9.71026 22.031 9.49424 22.018ZM9.49424 18.9526C9.38081 18.9441 9.26724 18.9672 9.16614 19.0193C9.06504 19.0714 8.98036 19.1506 8.92151 19.2479C8.78027 19.5279 8.71611 19.8404 8.73562 20.1534C8.71611 20.4663 8.78027 20.7789 8.92151 21.0588C8.98607 21.1497 9.07145 21.2239 9.17052 21.275C9.2696 21.3262 9.37948 21.3529 9.49098 21.3529C9.60248 21.3529 9.71237 21.3262 9.81144 21.275C9.91051 21.2239 9.9959 21.1497 10.0605 21.0588C10.202 20.779 10.2664 20.4664 10.2467 20.1534C10.2664 19.8403 10.202 19.5278 10.0605 19.2479C10.0026 19.1512 9.91901 19.0724 9.81906 19.0203C9.71912 18.9681 9.60668 18.9447 9.49424 18.9526V18.9526ZM12.6792 22.018C12.4392 22.0256 12.2011 21.9719 11.9877 21.8618C11.8047 21.7625 11.6493 21.619 11.5358 21.4444C11.4194 21.2622 11.3367 21.0605 11.2917 20.8489C11.1914 20.3915 11.1914 19.9177 11.2917 19.4602C11.3369 19.2475 11.4207 19.0448 11.539 18.8623C11.6542 18.688 11.8103 18.5447 11.9938 18.445C12.2072 18.3348 12.4452 18.281 12.6853 18.2888C12.9594 18.2834 13.2296 18.3538 13.4663 18.4921C13.5868 18.5661 13.688 18.6676 13.7616 18.7883C13.8575 18.948 13.9306 19.1204 13.9788 19.3004L13.2662 19.4712C13.2215 19.3338 13.1483 19.2074 13.0514 19.1002C13.0004 19.0496 12.9392 19.0104 12.8719 18.9851C12.8045 18.9599 12.7326 18.9492 12.6609 18.9538C12.5716 18.9519 12.4833 18.9731 12.4046 19.0152C12.3325 19.0555 12.27 19.111 12.2216 19.1779C12.1712 19.2482 12.131 19.3251 12.102 19.4065C12.071 19.4922 12.0473 19.5804 12.0312 19.6701C12.0151 19.7587 12.0045 19.8483 11.9995 19.9382C11.9946 20.0269 11.9926 20.107 11.9926 20.1794C11.9745 20.4842 12.0332 20.7887 12.1634 21.0649C12.2117 21.1584 12.2862 21.2357 12.3779 21.2875C12.4695 21.3392 12.5742 21.3631 12.6792 21.3562C12.7616 21.3577 12.8435 21.3439 12.9208 21.3155C12.9854 21.2907 13.0445 21.2534 13.0945 21.2057C13.1454 21.1554 13.1895 21.0988 13.2259 21.0373C13.2672 20.9678 13.3047 20.8961 13.3381 20.8225L14.0703 21.0128C14.0099 21.1757 13.9298 21.3306 13.832 21.4741C13.7501 21.5917 13.6487 21.6943 13.5322 21.7776C13.2803 21.9456 12.9817 22.0297 12.6792 22.018V22.018Z" fill="white"/>
</svg>
