<svg width="13" height="13" viewBox="0 0 13 13" fill="none" xmlns="http://www.w3.org/2000/svg">
<path d="M8.41875 6.03125L7.85625 6.60625C7.40625 7.05625 7.125 7.4375 7.125 8.375H5.875V8.0625C5.875 7.36875 6.15625 6.74375 6.60625 6.29375L7.38125 5.50625C7.6125 5.28125 7.75 4.96875 7.75 4.625C7.75 4.29348 7.6183 3.97554 7.38388 3.74112C7.14946 3.5067 6.83152 3.375 6.5 3.375C6.16848 3.375 5.85054 3.5067 5.61612 3.74112C5.3817 3.97554 5.25 4.29348 5.25 4.625H4C4 3.96196 4.26339 3.32607 4.73223 2.85723C5.20107 2.38839 5.83696 2.125 6.5 2.125C7.16304 2.125 7.79893 2.38839 8.26777 2.85723C8.73661 3.32607 9 3.96196 9 4.625C8.9991 5.15202 8.79021 5.65739 8.41875 6.03125ZM7.125 10.875H5.875V9.625H7.125V10.875ZM6.5 0.25C5.67924 0.25 4.86651 0.411661 4.10823 0.725753C3.34994 1.03984 2.66095 1.50022 2.08058 2.08058C0.90848 3.25269 0.25 4.8424 0.25 6.5C0.25 8.1576 0.90848 9.74732 2.08058 10.9194C2.66095 11.4998 3.34994 11.9602 4.10823 12.2742C4.86651 12.5883 5.67924 12.75 6.5 12.75C8.1576 12.75 9.74732 12.0915 10.9194 10.9194C12.0915 9.74732 12.75 8.1576 12.75 6.5C12.75 3.04375 9.9375 0.25 6.5 0.25Z" fill="#98A2B3"/>
</svg>
