<svg width="62" height="60" viewBox="0 0 62 60" fill="none" xmlns="http://www.w3.org/2000/svg">
<g clip-path="url(#clip0_648_8215)">
<path d="M32.1203 0H36.2645V5.58483C43.2456 5.58483 50.2266 5.59879 57.2152 5.56325C58.4224 5.45165 59.6365 5.684 60.7172 6.23343C61.2776 7.32059 61.515 8.54548 61.4013 9.76329C61.3666 21.8705 61.3624 33.9743 61.3886 46.0748C61.5053 48.1128 61.4258 50.1573 61.1513 52.18C60.872 53.6308 59.128 53.6664 57.9629 53.7146C50.7356 53.7349 43.5007 53.7006 36.2658 53.7146V59.9937H31.9325C21.2998 58.0669 10.6454 56.2811 0 54.4178V5.58483C10.7089 3.72533 21.4178 1.89122 32.1203 0Z" fill="#207245"/>
<path d="M36.2637 7.67383H59.2871V53.1264H36.2637V48.7948H41.8485V43.7479H36.2637V40.8602H41.8485V35.8119H36.2637V32.9242H41.8485V27.8747H36.2637V24.987H41.8485V19.9387H36.2637V17.0589H41.8485V12.0028H36.2637V7.67383Z" fill="white"/>
<path d="M44.6367 11.8604H54.4102V16.7471H44.6367V11.8604Z" fill="#207245"/>
<path d="M20.6658 18.4093C22.2422 18.2927 23.8237 18.1934 25.4103 18.1113C23.5487 22.0962 21.6723 26.0726 19.7811 30.0407C21.7002 34.1164 23.66 38.1631 25.5855 42.2388C23.9058 42.1382 22.227 42.0265 20.549 41.9038C19.2222 38.9301 18.0598 35.8795 17.0674 32.7671C16.1192 35.7226 14.7649 38.51 13.6771 41.4072C12.154 41.3847 10.6207 41.3199 9.09375 41.2536C10.886 37.5923 12.6173 33.9019 14.4653 30.2631C12.8952 26.5144 11.1728 22.8386 9.55323 19.1124C11.0882 19.0171 12.6232 18.9248 14.1582 18.8356C15.1977 21.6813 16.3337 24.4911 17.193 27.4096C18.1132 24.3163 19.4879 21.4058 20.667 18.4132L20.6658 18.4093Z" fill="white"/>
<path d="M44.6367 19.5342H54.4102V24.4184H44.6367V19.5342ZM44.6367 27.2082H54.4102V32.0924H44.6367V27.2082ZM44.6367 34.8823H54.4102V39.7664H44.6367V34.8823ZM44.6367 42.5563H54.4102V47.4405H44.6367V42.5563Z" fill="#207245"/>
</g>
<defs>
<clipPath id="clip0_648_8215">
<rect width="61.4166" height="60" fill="white"/>
</clipPath>
</defs>
</svg>
