<svg width="20" height="21" viewBox="0 0 20 21" fill="none" xmlns="http://www.w3.org/2000/svg">
<path d="M19.1943 14.6099V14.5795H19.0943C18.6652 14.5795 18.2537 14.4091 17.9503 14.1057C17.6469 13.8023 17.4765 13.3908 17.4765 12.9617V8.04303C17.4765 6.14858 16.7239 4.33172 15.3843 2.99215C14.0448 1.65257 12.2279 0.9 10.3334 0.9C8.439 0.9 6.62214 1.65257 5.28256 2.99215C3.94298 4.33172 3.19042 6.14858 3.19042 8.04303V12.9846C3.19042 13.4137 3.01997 13.8252 2.71657 14.1286C2.41317 14.432 2.00167 14.6024 1.5726 14.6024C1.39422 14.6024 1.22314 14.6733 1.097 14.7994C0.970863 14.9256 0.9 15.0966 0.9 15.275C0.9 15.4534 0.970863 15.6245 1.097 15.7506C1.22314 15.8768 1.39422 15.9476 1.5726 15.9476H19.0943C19.2727 15.9476 19.4438 15.8768 19.5699 15.7506C19.696 15.6245 19.7669 15.4534 19.7669 15.275C19.7669 15.0966 19.696 14.9256 19.5699 14.7994C19.4676 14.6971 19.3357 14.6311 19.1943 14.6099ZM16.6461 14.6021L4.08912 14.5799C4.40215 14.0997 4.56998 13.5377 4.56998 12.9617V8.04303C4.56998 6.50535 5.18082 5.03065 6.26812 3.94335C7.35543 2.85605 8.83013 2.24521 10.3678 2.24521C11.9055 2.24521 13.3802 2.85605 14.4675 3.94335C15.5548 5.03065 16.1656 6.50535 16.1656 8.04303V12.9846C16.1656 13.5603 16.3333 14.1221 16.6461 14.6021Z" fill="#FA5440" stroke="#FA5440" stroke-width="0.2"/>
<path d="M12.9835 17.313L12.9837 17.3131C13.1477 17.3827 13.2774 17.5147 13.3442 17.6799C13.4111 17.8451 13.4096 18.0301 13.3402 18.1942L13.3402 18.1942C13.1027 18.7552 12.7063 19.2346 12.1998 19.5732C11.6933 19.9118 11.0989 20.0949 10.4897 20.0999C9.88045 20.105 9.28306 19.9317 8.77106 19.6015C8.25908 19.2713 7.85484 18.7986 7.60812 18.2416L12.9835 17.313ZM12.9835 17.313C12.8194 17.2436 12.6344 17.2421 12.4692 17.309C12.3043 17.3757 12.1725 17.5051 12.1027 17.6688C11.9634 17.9837 11.7357 18.2513 11.4471 18.4393C11.1584 18.6273 10.8212 18.7274 10.4767 18.7274C10.1321 18.7274 9.79495 18.6273 9.50622 18.4393C9.21749 18.2512 8.98962 17.9833 8.85032 17.6682L8.85038 17.6681M12.9835 17.313L8.85038 17.6681M8.85038 17.6681L8.84877 17.6648M8.85038 17.6681L8.84877 17.6648M8.84877 17.6648C8.81003 17.5852 8.75595 17.514 8.68965 17.4554M8.84877 17.6648L8.68965 17.4554M8.68965 17.4554C8.62334 17.3967 8.5461 17.3517 8.46237 17.323M8.68965 17.4554L8.46237 17.323M8.46237 17.323C8.37863 17.2942 8.29005 17.2823 8.20169 17.2879M8.46237 17.323L8.20169 17.2879M8.20169 17.2879C8.114 17.2934 8.02826 17.3161 7.9493 17.3545M8.20169 17.2879L7.9493 17.3545M7.9493 17.3545C7.86918 17.3902 7.7968 17.4413 7.73626 17.5047C7.67525 17.5687 7.62745 17.6441 7.59559 17.7265C7.56373 17.809 7.54844 17.8969 7.55059 17.9853C7.55274 18.0737 7.57228 18.1607 7.6081 18.2415L7.9493 17.3545Z" fill="#FA5440" stroke="#FA5440" stroke-width="0.2"/>
</svg>
