<svg width="21" height="26" viewBox="0 0 21 26" fill="none" xmlns="http://www.w3.org/2000/svg">
<path d="M10.4894 13.6694H9.95205V17.7038H10.4764C10.5423 17.7049 10.6077 17.692 10.6682 17.6658C10.7288 17.6396 10.783 17.6009 10.8274 17.5521C10.8732 17.5059 10.9093 17.4511 10.9339 17.3909C10.9584 17.3306 10.9708 17.2661 10.9704 17.2011V14.1678C10.9713 14.1016 10.9588 14.036 10.9334 13.9749C10.9081 13.9138 10.8705 13.8585 10.823 13.8124C10.7796 13.7678 10.7278 13.7321 10.6705 13.7076C10.6132 13.6831 10.5517 13.6701 10.4894 13.6694V13.6694ZM7.40405 15.3768C7.45132 15.3306 7.48875 15.2752 7.51407 15.2142C7.53939 15.1531 7.55208 15.0875 7.55138 15.0214V14.1548C7.55447 14.0882 7.54417 14.0217 7.5211 13.9592C7.49802 13.8966 7.46264 13.8394 7.41705 13.7908C7.36924 13.7438 7.31222 13.7072 7.24957 13.6833C7.18692 13.6594 7.12001 13.6488 7.05305 13.6521H6.52438V15.5241H7.04872C7.11493 15.5256 7.18073 15.5132 7.24191 15.4879C7.30308 15.4625 7.35831 15.4247 7.40405 15.3768Z" fill="#FA5440"/>
<path d="M20.3667 10.8333H19.9334V5.63333C19.9334 5.63333 19.9334 5.63333 19.9334 5.60733C19.9312 5.56898 19.9239 5.5311 19.9117 5.49467V5.45567C19.8918 5.4093 19.8639 5.36678 19.8294 5.33L14.6294 0.13C14.5926 0.0954481 14.55 0.0675849 14.5037 0.0476666H14.4647C14.4215 0.024016 14.3746 0.00789644 14.326 0H1.3C1.18507 0 1.07485 0.0456546 0.993588 0.12692C0.912323 0.208186 0.866668 0.318406 0.866668 0.433333V10.8333H0.433334C0.318407 10.8333 0.208186 10.879 0.126921 10.9603C0.0456548 11.0415 0 11.1517 0 11.2667V19.9333C0 20.0483 0.0456548 20.1585 0.126921 20.2397C0.208186 20.321 0.318407 20.3667 0.433334 20.3667H0.866668V25.5667C0.866668 25.6816 0.912323 25.7918 0.993588 25.8731C1.07485 25.9543 1.18507 26 1.3 26H19.5C19.615 26 19.7252 25.9543 19.8064 25.8731C19.8877 25.7918 19.9334 25.6816 19.9334 25.5667V20.3667H20.3667C20.4816 20.3667 20.5918 20.321 20.6731 20.2397C20.7544 20.1585 20.8 20.0483 20.8 19.9333V11.2667C20.8 11.1517 20.7544 11.0415 20.6731 10.9603C20.5918 10.879 20.4816 10.8333 20.3667 10.8333ZM14.7334 1.47767L18.4557 5.2H14.7334V1.47767ZM19.0667 25.1333H1.73334V20.3667H19.0667V25.1333ZM5.66367 18.5553V12.7703H7.03734C7.22524 12.762 7.41277 12.7936 7.58756 12.8631C7.76235 12.9326 7.92042 13.0383 8.05134 13.1733C8.29021 13.4423 8.41596 13.7932 8.40234 14.1527V14.9933C8.40535 15.175 8.37158 15.3554 8.30307 15.5237C8.23456 15.692 8.13272 15.8447 8.00368 15.9727C7.87972 16.1039 7.72978 16.208 7.5634 16.2781C7.39703 16.3482 7.21787 16.3829 7.03734 16.38H6.53901V18.5467L5.66367 18.5553ZM9.10434 18.5553V12.766H10.4737C10.6549 12.7625 10.8349 12.7969 11.0021 12.867C11.1693 12.9372 11.3199 13.0415 11.4443 13.1733C11.5733 13.3005 11.6751 13.4524 11.7436 13.62C11.8121 13.7876 11.8459 13.9673 11.843 14.1483V17.1817C11.8457 17.3637 11.8114 17.5444 11.7421 17.7127C11.6728 17.8811 11.57 18.0336 11.44 18.161C11.3156 18.2928 11.1649 18.3972 10.9978 18.4673C10.8306 18.5375 10.6506 18.5719 10.4693 18.5683L9.10434 18.5553ZM14.664 15.223V16.0897H13.4853V18.5467H12.6187V12.766H15.1017V13.6327H13.4853V15.21L14.664 15.223ZM19.0667 10.8333H1.73334V0.866667H13.8667V5.63333C13.8667 5.74826 13.9123 5.85848 13.9936 5.93975C14.0749 6.02101 14.1851 6.06667 14.3 6.06667H19.0667V10.8333Z" fill="#FA5440"/>
<path d="M20.3667 10.8333H19.9334V5.63333C19.9334 5.63333 19.9334 5.63333 19.9334 5.60733C19.9312 5.56898 19.9239 5.5311 19.9117 5.49467V5.45567C19.8918 5.4093 19.8639 5.36678 19.8294 5.33L14.6294 0.13C14.5926 0.0954481 14.55 0.0675849 14.5037 0.0476666H14.4647C14.4215 0.024016 14.3746 0.00789644 14.326 0H1.3C1.18507 0 1.07485 0.0456546 0.993588 0.12692C0.912323 0.208186 0.866668 0.318406 0.866668 0.433333V10.8333H0.433334C0.318407 10.8333 0.208186 10.879 0.126921 10.9603C0.0456548 11.0415 0 11.1517 0 11.2667V19.9333C0 20.0483 0.0456548 20.1585 0.126921 20.2397C0.208186 20.321 0.318407 20.3667 0.433334 20.3667H0.866668V25.5667C0.866668 25.6816 0.912323 25.7918 0.993588 25.8731C1.07485 25.9543 1.18507 26 1.3 26H19.5C19.615 26 19.7252 25.9543 19.8064 25.8731C19.8877 25.7918 19.9334 25.6816 19.9334 25.5667V20.3667H20.3667C20.4816 20.3667 20.5918 20.321 20.6731 20.2397C20.7544 20.1585 20.8 20.0483 20.8 19.9333V11.2667C20.8 11.1517 20.7544 11.0415 20.6731 10.9603C20.5918 10.879 20.4816 10.8333 20.3667 10.8333ZM14.7334 1.47767L18.4557 5.2H14.7334V1.47767ZM19.0667 25.1333H1.73334V20.3667H19.0667V25.1333ZM5.66367 18.5553V12.7703H7.03734C7.22524 12.762 7.41277 12.7936 7.58756 12.8631C7.76235 12.9326 7.92042 13.0383 8.05134 13.1733C8.29021 13.4423 8.41596 13.7932 8.40234 14.1527V14.9933C8.40535 15.175 8.37158 15.3554 8.30307 15.5237C8.23456 15.692 8.13272 15.8447 8.00368 15.9727C7.87972 16.1039 7.72978 16.208 7.5634 16.2781C7.39703 16.3482 7.21787 16.3829 7.03734 16.38H6.53901V18.5467L5.66367 18.5553ZM9.10434 18.5553V12.766H10.4737C10.6549 12.7625 10.8349 12.7969 11.0021 12.867C11.1693 12.9372 11.3199 13.0415 11.4443 13.1733C11.5733 13.3005 11.6751 13.4524 11.7436 13.62C11.8121 13.7876 11.8459 13.9673 11.843 14.1483V17.1817C11.8457 17.3637 11.8114 17.5444 11.7421 17.7127C11.6728 17.8811 11.57 18.0336 11.44 18.161C11.3156 18.2928 11.1649 18.3972 10.9978 18.4673C10.8306 18.5375 10.6506 18.5719 10.4693 18.5683L9.10434 18.5553ZM14.664 15.223V16.0897H13.4853V18.5467H12.6187V12.766H15.1017V13.6327H13.4853V15.21L14.664 15.223ZM19.0667 10.8333H1.73334V0.866667H13.8667V5.63333C13.8667 5.74826 13.9123 5.85848 13.9936 5.93975C14.0749 6.02101 14.1851 6.06667 14.3 6.06667H19.0667V10.8333Z" fill="#FA5440"/>
</svg>
