<svg width="48" height="60" viewBox="0 0 48 60" fill="none" xmlns="http://www.w3.org/2000/svg">
<path d="M24.2008 31.5394H22.9608V40.8494H24.1708C24.3229 40.852 24.4739 40.8221 24.6135 40.7618C24.7532 40.7014 24.8784 40.612 24.9808 40.4994C25.0864 40.3927 25.1699 40.2663 25.2266 40.1273C25.2832 39.9883 25.3118 39.8395 25.3108 39.6894V32.6894C25.313 32.5368 25.284 32.3853 25.2255 32.2443C25.167 32.1033 25.0803 31.9757 24.9708 31.8694C24.8705 31.7663 24.7509 31.6841 24.6187 31.6275C24.4866 31.5708 24.3445 31.5409 24.2008 31.5394ZM17.0808 35.4794C17.1899 35.3727 17.2762 35.2451 17.3347 35.1042C17.3931 34.9632 17.4224 34.8119 17.4208 34.6594V32.6594C17.4279 32.5058 17.4041 32.3523 17.3509 32.208C17.2976 32.0637 17.216 31.9316 17.1108 31.8194C17.0005 31.7109 16.8689 31.6265 16.7243 31.5714C16.5797 31.5163 16.4253 31.4918 16.2708 31.4994H15.0508V35.8194H16.2608C16.4136 35.8228 16.5654 35.7943 16.7066 35.7358C16.8478 35.6772 16.9752 35.5899 17.0808 35.4794Z" fill="#FA5440"/>
<path d="M47 25H46V13C46 13 46 13 46 12.94C45.995 12.8515 45.9781 12.7641 45.95 12.68V12.59C45.9041 12.483 45.8398 12.3849 45.76 12.3L33.76 0.3C33.6752 0.220265 33.577 0.155965 33.47 0.11H33.38C33.2804 0.0554216 33.1722 0.0182226 33.06 0H3C2.73479 0 2.48043 0.105357 2.29289 0.292893C2.10536 0.48043 2 0.734784 2 1V25H1C0.734784 25 0.48043 25.1054 0.292894 25.2929C0.105357 25.4804 0 25.7348 0 26V46C0 46.2652 0.105357 46.5196 0.292894 46.7071C0.48043 46.8946 0.734784 47 1 47H2V59C2 59.2652 2.10536 59.5196 2.29289 59.7071C2.48043 59.8946 2.73479 60 3 60H45C45.2652 60 45.5196 59.8946 45.7071 59.7071C45.8947 59.5196 46 59.2652 46 59V47H47C47.2652 47 47.5196 46.8946 47.7071 46.7071C47.8947 46.5196 48 46.2652 48 46V26C48 25.7348 47.8947 25.4804 47.7071 25.2929C47.5196 25.1054 47.2652 25 47 25ZM34 3.41L42.59 12H34V3.41ZM44 58H4V47H44V58ZM13.07 42.82V29.47H16.24C16.6736 29.4508 17.1064 29.5237 17.5097 29.6841C17.9131 29.8444 18.2779 30.0884 18.58 30.4C19.1313 31.0208 19.4214 31.8304 19.39 32.66V34.6C19.3969 35.0193 19.319 35.4356 19.1609 35.824C19.0028 36.2124 18.7678 36.5648 18.47 36.86C18.184 37.163 17.8379 37.403 17.454 37.5648C17.0701 37.7267 16.6566 37.8068 16.24 37.8H15.09V42.8L13.07 42.82ZM21.01 42.82V29.46H24.17C24.5883 29.4518 25.0037 29.5312 25.3894 29.6931C25.7752 29.855 26.1228 30.0958 26.41 30.4C26.7075 30.6934 26.9424 31.044 27.1006 31.4307C27.2587 31.8175 27.3368 32.2322 27.33 32.65V39.65C27.3362 40.0701 27.257 40.487 27.0971 40.8755C26.9372 41.264 26.7001 41.616 26.4 41.91C26.1128 42.2142 25.7652 42.455 25.3794 42.6169C24.9937 42.7788 24.5783 42.8582 24.16 42.85L21.01 42.82ZM33.84 35.13V37.13H31.12V42.8H29.12V29.46H34.85V31.46H31.12V35.1L33.84 35.13ZM44 25H4V2H32V13C32 13.2652 32.1054 13.5196 32.2929 13.7071C32.4804 13.8946 32.7348 14 33 14H44V25Z" fill="#FA5440"/>
</svg>
