<svg width="13" height="13" viewBox="0 0 13 13" fill="none" xmlns="http://www.w3.org/2000/svg">
<path d="M5.26672 2.98304C5.09751 1.03558 3.06705 0.0800151 2.98112 0.0410127C2.90079 0.00322793 2.81077 -0.00884427 2.72333 0.00644236C0.379265 0.39558 0.0266806 1.76067 0.0125064 1.8174C-0.00677825 1.89645 -0.00371103 1.97932 0.0213653 2.05673C2.81723 10.7365 8.62778 12.3454 10.5378 12.8746C10.6848 12.9154 10.8062 12.9482 10.8983 12.9783C11.0035 13.0127 11.1177 13.006 11.2181 12.9597C11.2766 12.9331 12.6568 12.2825 12.9943 10.1604C13.0093 10.0677 12.9944 9.97273 12.9518 9.88913C12.9217 9.83063 12.1997 8.45579 10.1976 7.97003C10.1297 7.95265 10.0585 7.95204 9.99033 7.96825C9.92212 7.98447 9.85887 8.01702 9.80602 8.06311C9.17438 8.60294 8.30178 9.17822 7.92527 9.23761C5.40137 8.00283 3.99192 5.63343 3.93877 5.18402C3.90776 4.93139 4.48625 4.04408 5.15155 3.32254C5.19337 3.27713 5.22522 3.22346 5.24505 3.16499C5.26489 3.10651 5.27227 3.04454 5.26672 2.98304Z" fill="#3A974C"/>
</svg>
