<svg width="16" height="15" viewBox="0 0 16 15" fill="none" xmlns="http://www.w3.org/2000/svg">
<path d="M1.68449 3.28125C1.25134 3.28125 0.794118 3.09375 0.481283 2.78906C0.168449 2.48438 0 2.0625 0 1.64062C0 1.21875 0.192513 0.796875 0.481283 0.46875C0.794118 0.164062 1.22727 0 1.68449 0C2.11765 0 2.5508 0.1875 2.86364 0.46875C3.17647 0.773438 3.36898 1.19531 3.36898 1.64062C3.36898 2.0625 3.17647 2.48438 2.86364 2.78906C2.5508 3.09375 2.11765 3.28125 1.68449 3.28125ZM9.12032 2.78906C9.43316 2.48438 9.62567 2.0625 9.62567 1.64062C9.62567 1.21875 9.43316 0.796875 9.12032 0.46875C8.80749 0.164062 8.37433 0 7.94118 0C7.50802 0 7.0508 0.1875 6.73797 0.46875C6.42513 0.773438 6.25668 1.19531 6.25668 1.64062C6.25668 2.0625 6.4492 2.48438 6.73797 2.78906C7.0508 3.09375 7.48396 3.28125 7.94118 3.28125C8.37433 3.28125 8.80749 3.09375 9.12032 2.78906ZM15.377 2.78906C15.6898 2.48438 15.8824 2.0625 15.8824 1.64062C15.8824 1.21875 15.6898 0.796875 15.377 0.46875C15.0642 0.164062 14.631 0 14.1979 0C13.7647 0 13.3075 0.1875 12.9947 0.46875C12.6818 0.773438 12.5134 1.19531 12.5134 1.64062C12.5134 2.0625 12.7059 2.48438 12.9947 2.78906C13.3075 3.09375 13.7406 3.28125 14.1979 3.28125C14.631 3.28125 15.0642 3.09375 15.377 2.78906ZM2.86364 8.64844C3.17647 8.34375 3.36898 7.92188 3.36898 7.5C3.36898 7.07812 3.17647 6.65625 2.86364 6.32812C2.5508 6.02344 2.11765 5.85938 1.68449 5.85938C1.25134 5.85938 0.794118 6.04688 0.481283 6.32812C0.168449 6.63281 0 7.05469 0 7.5C0 7.92188 0.192513 8.34375 0.481283 8.64844C0.794118 8.95312 1.22727 9.14062 1.68449 9.14062C2.11765 9.14062 2.5508 8.95312 2.86364 8.64844ZM9.12032 8.64844C9.43316 8.34375 9.62567 7.92188 9.62567 7.5C9.62567 7.07812 9.43316 6.65625 9.12032 6.32812C8.80749 6.02344 8.37433 5.85938 7.94118 5.85938C7.50802 5.85938 7.0508 6.04688 6.73797 6.32812C6.42513 6.63281 6.25668 7.05469 6.25668 7.5C6.25668 7.92188 6.4492 8.34375 6.73797 8.64844C7.0508 8.95312 7.48396 9.14062 7.94118 9.14062C8.37433 9.14062 8.80749 8.95312 9.12032 8.64844ZM15.377 8.64844C15.6898 8.34375 15.8824 7.92188 15.8824 7.5C15.8824 7.07812 15.6898 6.65625 15.377 6.32812C15.0642 6.02344 14.631 5.85938 14.1979 5.85938C13.7647 5.85938 13.3075 6.04688 12.9947 6.32812C12.6818 6.63281 12.5134 7.05469 12.5134 7.5C12.5134 7.92188 12.7059 8.34375 12.9947 8.64844C13.3075 8.95312 13.7406 9.14062 14.1979 9.14062C14.631 9.14062 15.0642 8.95312 15.377 8.64844ZM2.86364 14.5078C3.17647 14.2031 3.36898 13.7812 3.36898 13.3594C3.36898 12.9375 3.17647 12.5156 2.86364 12.1875C2.5508 11.8828 2.11765 11.7188 1.68449 11.7188C1.25134 11.7188 0.794118 11.9062 0.481283 12.1875C0.168449 12.4922 0 12.9141 0 13.3594C0 13.7812 0.192513 14.2031 0.481283 14.5078C0.794118 14.8125 1.22727 15 1.68449 15C2.11765 15 2.5508 14.8125 2.86364 14.5078ZM9.12032 14.5078C9.43316 14.2031 9.62567 13.7812 9.62567 13.3594C9.62567 12.9375 9.43316 12.5156 9.12032 12.1875C8.80749 11.8828 8.37433 11.7188 7.94118 11.7188C7.50802 11.7188 7.0508 11.9062 6.73797 12.1875C6.42513 12.4922 6.25668 12.9141 6.25668 13.3594C6.25668 13.7812 6.4492 14.2031 6.73797 14.5078C7.0508 14.8125 7.48396 15 7.94118 15C8.37433 15 8.80749 14.8125 9.12032 14.5078ZM15.377 14.5078C15.6898 14.2031 15.8824 13.7812 15.8824 13.3594C15.8824 12.9375 15.6898 12.5156 15.377 12.1875C15.0642 11.8828 14.631 11.7188 14.1979 11.7188C13.7647 11.7188 13.3075 11.9062 12.9947 12.1875C12.6818 12.4922 12.5134 12.9141 12.5134 13.3594C12.5134 13.7812 12.7059 14.2031 12.9947 14.5078C13.3075 14.8125 13.7406 15 14.1979 15C14.631 15 15.0642 14.8125 15.377 14.5078Z" fill="#FA5440"/>
</svg>
