<svg width="12" height="8" viewBox="0 0 12 8" fill="none" xmlns="http://www.w3.org/2000/svg">
<path d="M6.00049 0.25C3.50049 0.25 1.36549 1.805 0.500488 4C1.36549 6.195 3.50049 7.75 6.00049 7.75C8.50299 7.75 10.6355 6.195 11.5005 4C10.6355 1.805 8.50299 0.25 6.00049 0.25ZM6.00049 6.5C4.62049 6.5 3.50049 5.38 3.50049 4C3.50049 2.62 4.62049 1.5 6.00049 1.5C7.38049 1.5 8.50049 2.62 8.50049 4C8.50049 5.38 7.38049 6.5 6.00049 6.5ZM6.00049 2.5C5.17299 2.5 4.50049 3.1725 4.50049 4C4.50049 4.8275 5.17299 5.5 6.00049 5.5C6.82799 5.5 7.50049 4.8275 7.50049 4C7.50049 3.1725 6.82799 2.5 6.00049 2.5Z" fill="#5254A6"/>
</svg>
